<?xml version="1.0" encoding="UTF-8"?>
<svg width="120" height="40" viewBox="0 0 120 40" fill="none" xmlns="http://www.w3.org/2000/svg">
  <!-- Main RevX logo - inspired by the Dribbble video -->
  <g>
    <!-- "Rev" letters -->
    <path d="M14.8 28H10V12H20.2C21.6 12 22.8 12.3 23.8 12.9C24.8 13.5 25.6 14.3 26.1 15.3C26.6 16.3 26.9 17.4 26.9 18.6C26.9 19.8 26.6 20.9 26.1 21.9C25.6 22.9 24.8 23.7 23.8 24.3C22.8 24.9 21.6 25.2 20.2 25.2H14.8V28ZM14.8 21.2H19.6C20.2 21.2 20.7 21.1 21.1 20.8C21.5 20.5 21.8 20.1 22 19.6C22.2 19.1 22.3 18.6 22.3 18C22.3 17.4 22.2 16.9 22 16.4C21.8 15.9 21.5 15.5 21.1 15.2C20.7 14.9 20.2 14.8 19.6 14.8H14.8V21.2Z" fill="#FF4A2D"/>
    <path d="M35.6 28.2C34.1 28.2 32.8 27.9 31.7 27.2C30.6 26.5 29.7 25.6 29.1 24.4C28.5 23.2 28.2 21.8 28.2 20.2C28.2 18.6 28.5 17.2 29.1 16C29.7 14.8 30.6 13.9 31.7 13.2C32.8 12.5 34.1 12.2 35.6 12.2C37.1 12.2 38.4 12.5 39.5 13.2C40.6 13.9 41.5 14.8 42.1 16C42.7 17.2 43 18.6 43 20.2C43 21.8 42.7 23.2 42.1 24.4C41.5 25.6 40.6 26.5 39.5 27.2C38.4 27.9 37.1 28.2 35.6 28.2ZM35.6 24.4C36.5 24.4 37.2 24 37.7 23.1C38.2 22.2 38.4 21.1 38.4 19.8C38.4 18.5 38.2 17.4 37.7 16.5C37.2 15.6 36.5 15.2 35.6 15.2C34.7 15.2 34 15.6 33.5 16.5C33 17.4 32.8 18.5 32.8 19.8C32.8 21.1 33 22.2 33.5 23.1C34 24 34.7 24.4 35.6 24.4Z" fill="#FF4A2D"/>
    <path d="M55.3 12H59.7L51.3 28H46.9L38.5 12H43.1L48.9 23.4L55.3 12Z" fill="#FF4A2D"/>
    
    <!-- Stylized X -->
    <path d="M80 12L68.5 28H63.5L75 12H80Z" fill="#255FE9"/>
    <path d="M63.5 12L75 28H80L68.5 12H63.5Z" fill="#255FE9"/>
    
    <!-- Dot -->
    <circle cx="85" cy="20" r="4" fill="#FF4A2D"/>
  </g>
</svg>
